<svg width="36" height="36" viewBox="0 0 36 36" fill="none" xmlns="http://www.w3.org/2000/svg">
  <!-- Wood grain background -->
  <defs>
    <pattern id="woodGrain" patternUnits="userSpaceOnUse" width="36" height="36">
      <rect width="36" height="36" fill="#8B4513"/>
      <path d="M0,8 Q18,4 36,8 T0,16 Q18,12 36,16 T0,24 Q18,20 36,24 T0,32 Q18,28 36,32" stroke="#A0522D" stroke-width="1" fill="none" opacity="0.3"/>
      <path d="M0,12 Q18,8 36,12 T0,20 Q18,16 36,20 T0,28 Q18,24 36,28" stroke="#CD853F" stroke-width="0.5" fill="none" opacity="0.2"/>
    </pattern>
    <linearGradient id="goldGradient" x1="0%" y1="0%" x2="100%" y2="100%">
      <stop offset="0%" style="stop-color:#D4AF37;stop-opacity:1" />
      <stop offset="100%" style="stop-color:#B8860B;stop-opacity:1" />
    </linearGradient>
  </defs>
  
  <!-- Background circle with wood grain -->
  <circle cx="18" cy="18" r="18" fill="url(#woodGrain)"/>
  
  <!-- Stylized "A" logo -->
  <path d="M18 6 L12 30 L16 30 L17.5 24 L18.5 24 L20 30 L24 30 L18 6 Z M17.2 20 L18.8 20 L18 12.5 L17.2 20 Z" fill="url(#goldGradient)"/>
  
  <!-- Small decorative elements -->
  <circle cx="9" cy="12" r="1" fill="url(#goldGradient)" opacity="0.6"/>
  <circle cx="27" cy="12" r="1" fill="url(#goldGradient)" opacity="0.6"/>
  <circle cx="9" cy="24" r="1" fill="url(#goldGradient)" opacity="0.6"/>
  <circle cx="27" cy="24" r="1" fill="url(#goldGradient)" opacity="0.6"/>
</svg>
